<svg width="112" height="30" viewBox="0 0 112 30" fill="none" xmlns="http://www.w3.org/2000/svg">
<path d="M25.48 14C25.7467 13.9733 25.96 14.0667 26.12 14.28C26.3067 14.4667 26.4 14.6667 26.4 14.88C26.4 15.0667 26.3333 15.2267 26.2 15.36C26.0933 15.4933 25.9333 15.56 25.72 15.56C25.3733 15.56 24.8267 15.6133 24.08 15.72C23.5733 17.3467 23.04 18.8 22.48 20.08C21.9467 21.36 21.3067 22.7867 20.56 24.36L20.04 25.48C19.9333 25.7467 19.7067 25.88 19.36 25.88C19.0667 25.88 18.8133 25.7733 18.6 25.56C18.3867 25.3467 18.3467 25.0933 18.48 24.8L19.08 23.48C19.8 21.9867 20.3867 20.68 20.84 19.56C21.32 18.44 21.7467 17.2267 22.12 15.92C18.3867 16.32 14.6933 17.04 11.04 18.08C10.7467 18.1867 10.48 18.1333 10.24 17.92C10 17.7067 9.88 17.4533 9.88 17.16C9.88 16.8667 10.0267 16.68 10.32 16.6C14.3467 15.4267 18.44 14.64 22.6 14.24C23.1333 13.2267 23.5467 12.0667 23.84 10.76C24.1333 9.42667 24.3333 8.2 24.44 7.08C24.5733 5.96 24.6533 5.13333 24.68 4.6C24.6 2.68 23.9467 1.72 22.72 1.72C22.2133 1.72 21.6267 1.89333 20.96 2.24C20.32 2.58667 19.68 3.04 19.04 3.6C18 4.48 16.8133 5.81333 15.48 7.6C14.1467 9.38667 12.6667 11.4533 11.04 13.8C9.86667 15.5067 8.34667 17.9733 6.48 21.2C4.61333 24.4267 3.34667 26.84 2.68 28.44C2.57333 28.7333 2.34667 28.88 2 28.88C1.70667 28.88 1.46667 28.76 1.28 28.52C1.06667 28.3067 1.01333 28.0533 1.12 27.76C2.21333 25.1733 4.09333 21.68 6.76 17.28C9.42667 12.88 11.64 9.64 13.4 7.56C13.6933 7.16 13.9733 6.81333 14.24 6.52C15.7333 4.65333 17.1067 3.16 18.36 2.04C19.6133 0.893332 20.9467 0.319998 22.36 0.319998C24.8133 0.319998 26.04 2.05333 26.04 5.52C26.04 7.68 25.5467 10.5333 24.56 14.08C24.9333 14.0267 25.24 14 25.48 14ZM26.1828 23.88C25.7028 23.96 25.3428 23.76 25.1028 23.28C24.8361 22.8 24.7428 22.3467 24.8228 21.92C24.9295 21.3067 25.1961 20.6133 25.6228 19.84C26.0495 19.04 26.5561 18.36 27.1428 17.8C27.7561 17.24 28.3561 16.96 28.9428 16.96C29.6628 16.96 30.2628 17.4133 30.7428 18.32V18.36C31.0628 18.4133 31.2628 18.5867 31.3428 18.88C31.6895 20.2933 32.3828 21 33.4228 21C34.1428 21 35.0095 20.6667 36.0228 20C36.1828 19.8933 36.4228 19.7333 36.7428 19.52C37.0895 19.28 37.3828 19.0533 37.6228 18.84L38.7028 17.8C39.1028 17.4 39.4228 17.2 39.6628 17.2C39.8228 17.2 39.9695 17.28 40.1028 17.44C40.2361 17.6267 40.3028 17.8267 40.3028 18.04C40.3561 18.1467 40.3295 18.2533 40.2228 18.36C39.9561 18.7067 39.5961 19.0667 39.1428 19.44C38.5561 19.9467 37.9695 20.4133 37.3828 20.84C36.7961 21.24 36.1295 21.64 35.3828 22.04C34.5828 22.44 33.8228 22.64 33.1028 22.64C31.9561 22.64 31.0761 22.0533 30.4628 20.88C29.3161 22.64 27.8895 23.64 26.1828 23.88ZM26.3828 21.68C26.3828 21.8667 26.4628 21.96 26.6228 21.96C26.9961 21.96 27.5161 21.6933 28.1828 21.16C28.8761 20.6 29.3295 20.0533 29.5428 19.52L29.6228 19.36L29.4228 19.16C29.2628 18.8933 29.0761 18.76 28.8628 18.76C28.5695 18.76 28.2361 18.96 27.8628 19.36C27.4895 19.76 27.1561 20.2133 26.8628 20.72C26.5695 21.2267 26.4095 21.5467 26.3828 21.68ZM41.6291 22.64C41.5491 22.4 41.5091 22.1867 41.5091 22C41.5091 21.68 41.6024 21.3467 41.7891 21C41.9757 20.6267 42.0957 20.3867 42.1491 20.28C42.2024 20.1733 42.3091 19.9867 42.4691 19.72C42.6291 19.4533 42.7091 19.24 42.7091 19.08C42.7091 18.8667 42.5624 18.7467 42.2691 18.72C41.7091 18.64 41.2957 18.4933 41.0291 18.28C40.7891 18.0667 40.6557 17.9467 40.6291 17.92C40.4691 18.1867 40.2424 18.4533 39.9491 18.72C39.6557 18.96 39.4691 19.12 39.3891 19.2C39.3357 19.2533 39.2824 19.3067 39.2291 19.36C39.1757 19.4133 39.0157 19.5467 38.7491 19.76C38.6424 19.8667 38.5224 19.92 38.3891 19.92C38.2557 19.92 38.1357 19.8533 38.0291 19.72C37.9491 19.5867 37.9091 19.4133 37.9091 19.2C37.9091 18.8 38.0824 18.4267 38.4291 18.08C38.9891 17.52 39.4824 16.8533 39.9091 16.08C39.9891 15.6533 40.1491 15.2667 40.3891 14.92C40.5224 14.7067 40.7491 14.6 41.0691 14.6C41.3357 14.6 41.5491 14.6933 41.7091 14.88C41.8691 15.04 41.8957 15.2533 41.7891 15.52L41.7091 15.68C41.6557 15.84 41.6024 15.96 41.5491 16.04C41.5224 16.28 41.6557 16.4933 41.9491 16.68C42.2691 16.84 42.6957 17 43.2291 17.16C43.7357 17.2933 44.0557 17.4267 44.1891 17.56C44.4024 17.8 44.5091 18.0933 44.5091 18.44C44.5091 18.68 44.4691 18.9333 44.3891 19.2C44.3091 19.44 44.2557 19.6 44.2291 19.68C44.1491 19.8667 44.0291 20.0933 43.8691 20.36C43.7091 20.6 43.5757 20.8267 43.4691 21.04C43.2824 21.4133 43.1891 21.7067 43.1891 21.92C43.1891 22.24 43.3757 22.4 43.7491 22.4C44.2024 22.4 44.8557 22.1867 45.7091 21.76C47.4157 20.9067 49.3357 19.48 51.4691 17.48C51.6291 17.32 51.8024 17.24 51.9891 17.24C52.1757 17.24 52.3357 17.32 52.4691 17.48C52.6024 17.64 52.6691 17.8267 52.6691 18.04C52.6691 18.2533 52.6024 18.44 52.4691 18.6C52.0424 19.08 51.2691 19.7467 50.1491 20.6C49.0291 21.4533 47.8424 22.2133 46.5891 22.88C45.3624 23.52 44.3091 23.84 43.4291 23.84C42.5224 23.84 41.9224 23.44 41.6291 22.64ZM50.8909 23.64C49.9576 23.64 49.4909 23.1333 49.4909 22.12C49.4909 21.4267 49.7043 20.6133 50.1309 19.68C50.5309 18.7467 50.9443 18.0133 51.3709 17.48C51.5576 17.2667 51.7576 17.16 51.9709 17.16C52.1843 17.16 52.3709 17.24 52.5309 17.4C52.6909 17.56 52.7709 17.7467 52.7709 17.96C52.7709 18.1733 52.7043 18.3467 52.5709 18.48C52.1976 18.9333 51.8376 19.4667 51.4909 20.08C51.1709 20.6667 51.0109 21.16 51.0109 21.56C51.0109 21.9067 51.1176 22.08 51.3309 22.08C51.4909 22.08 51.6909 21.9733 51.9309 21.76C52.1709 21.5467 52.3309 21.3467 52.4109 21.16C52.5443 20.8933 52.6109 20.6533 52.6109 20.44C52.6109 20.1733 52.5176 19.9067 52.3309 19.64C52.2509 19.5067 52.2109 19.3867 52.2109 19.28C52.2109 19.04 52.3576 18.8 52.6509 18.56C52.8109 18.4 53.0109 18.32 53.2509 18.32C53.3576 18.32 53.4776 18.36 53.6109 18.44C54.1176 18.84 54.6109 19.16 55.0909 19.4C55.5709 19.64 56.0776 19.76 56.6109 19.76C57.8643 19.76 59.2109 19.04 60.6509 17.6C60.8376 17.4133 61.0376 17.32 61.2509 17.32C61.4376 17.32 61.5843 17.3867 61.6909 17.52C61.8243 17.6533 61.8909 17.8267 61.8909 18.04C61.8909 18.36 61.7443 18.6267 61.4509 18.84C60.7843 19.56 60.0109 20.1467 59.1309 20.6C58.2509 21.0267 57.3576 21.24 56.4509 21.24C55.5709 21.24 54.7843 21.04 54.0909 20.64C54.0643 21.0133 53.9176 21.4133 53.6509 21.84C53.3309 22.32 52.9176 22.7467 52.4109 23.12C51.9043 23.4667 51.3976 23.64 50.8909 23.64ZM74.0678 17.6C74.2011 17.4667 74.3745 17.4 74.5878 17.4C74.8011 17.4 74.9745 17.4667 75.1078 17.6C75.2411 17.7333 75.3078 17.9067 75.3078 18.12C75.3078 18.36 75.2011 18.5733 74.9878 18.76C74.5345 19.2667 73.7211 19.92 72.5478 20.72C71.3745 21.52 70.2278 22.08 69.1078 22.4C68.7611 22.5067 68.3878 22.56 67.9878 22.56C67.2945 22.56 66.7611 22.3067 66.3878 21.8C66.2011 21.5333 66.0278 20.9867 65.8678 20.16C65.7611 19.6 65.6545 19.1867 65.5478 18.92C65.4411 18.6533 65.2678 18.52 65.0278 18.52C64.8678 18.52 64.7478 18.5467 64.6678 18.6C64.3745 18.7333 63.7745 19.3467 62.8678 20.44C61.9878 21.5067 61.3345 22.4933 60.9078 23.4C60.8011 23.6667 60.6011 23.8 60.3078 23.8C60.0678 23.8 59.8545 23.7067 59.6678 23.52C59.5078 23.3067 59.4545 23.0667 59.5078 22.8L60.5878 17.8C60.6145 17.5867 60.6945 17.4267 60.8278 17.32C60.9878 17.2133 61.1611 17.16 61.3478 17.16C61.5878 17.16 61.7745 17.24 61.9078 17.4C62.0678 17.56 62.1211 17.76 62.0678 18L61.5878 20C62.5478 18.8267 63.2945 17.9867 63.8278 17.48C64.3878 16.9733 64.9478 16.72 65.5078 16.72C65.7211 16.72 65.9611 16.7867 66.2278 16.92C66.5745 17.1067 66.8145 17.3467 66.9478 17.64C67.1078 17.9333 67.1878 18.2933 67.1878 18.72C67.1878 18.9067 67.1878 19.1867 67.1878 19.56C67.1878 19.9067 67.2145 20.2133 67.2678 20.48C67.3478 20.72 67.4678 20.9067 67.6278 21.04C67.8145 21.2 68.0545 21.28 68.3478 21.28C69.5211 21.28 71.4278 20.0533 74.0678 17.6ZM97.6984 25.24C97.8318 25.3733 97.8984 25.52 97.8984 25.68C97.8984 25.8933 97.7918 26.08 97.5784 26.24C97.3918 26.4267 97.1651 26.52 96.8984 26.52C96.7118 26.52 96.5384 26.48 96.3784 26.4C95.6318 25.9733 94.7251 25.76 93.6584 25.76C92.4584 25.76 91.2051 26.0267 89.8984 26.56C88.6184 27.12 87.4584 27.92 86.4184 28.96C86.2851 29.0933 86.1251 29.16 85.9384 29.16C85.6718 29.16 85.4451 29.0533 85.2584 28.84C85.0984 28.6533 85.0718 28.44 85.1784 28.2C87.9518 21.8267 90.1384 16.5067 91.7384 12.24C93.3384 7.94667 94.2051 4.58667 94.3384 2.16C94.3384 1.94666 94.4051 1.78667 94.5384 1.68C94.6984 1.57333 94.8851 1.52 95.0984 1.52C95.3118 1.52 95.4984 1.58667 95.6584 1.72C95.8184 1.85333 95.8851 2.02667 95.8584 2.24C95.4851 5.28 94.8584 8.09333 93.9784 10.68C93.0984 13.2667 91.8184 16.4933 90.1384 20.36C88.9118 23.1867 88.0984 25.1067 87.6984 26.12C88.6584 25.5333 89.7384 25.08 90.9384 24.76C92.1384 24.4133 93.2718 24.24 94.3384 24.24C95.9118 24.24 97.0318 24.5733 97.6984 25.24ZM101.353 22.64C100.793 22.64 100.326 22.4267 99.9525 22C99.5792 21.5467 99.3925 21.0533 99.3925 20.52C99.3925 20.12 99.4592 19.7467 99.5925 19.4C99.7525 19.0267 99.9925 18.6 100.313 18.12C100.526 17.8 100.673 17.5467 100.753 17.36C100.859 17.0933 101.059 16.96 101.353 16.96C101.566 16.96 101.753 17.04 101.913 17.2C102.073 17.36 102.153 17.5467 102.153 17.76C102.153 17.92 102.126 18.04 102.073 18.12C101.939 18.3333 101.766 18.6133 101.553 18.96C101.339 19.28 101.179 19.56 101.073 19.8C100.993 19.9867 100.953 20.1867 100.953 20.4C100.953 20.6933 101.086 20.9067 101.353 21.04C101.753 21.2267 102.193 21.04 102.673 20.48C103.153 19.8933 103.566 19.2933 103.913 18.68C104.286 18.0667 104.526 17.6667 104.633 17.48C104.739 17.32 104.859 17.2133 104.993 17.16C105.153 17.08 105.313 17.0667 105.473 17.12C105.686 17.1733 105.846 17.2933 105.953 17.48C106.086 17.64 106.126 17.84 106.073 18.08C105.886 18.7733 105.779 19.44 105.753 20.08C105.753 20.1333 105.739 20.2667 105.713 20.48C105.686 20.6667 105.699 20.7867 105.753 20.84C105.913 21 106.326 20.84 106.993 20.36C107.686 19.88 108.766 18.9333 110.233 17.52C110.393 17.36 110.566 17.28 110.753 17.28C110.939 17.28 111.099 17.36 111.233 17.52C111.366 17.6533 111.433 17.8267 111.433 18.04C111.433 18.2 111.366 18.3733 111.233 18.56C110.966 18.9067 110.419 19.4267 109.592 20.12C108.766 20.8133 107.939 21.4267 107.113 21.96C106.313 22.4667 105.739 22.68 105.393 22.6C104.913 22.5467 104.606 22.3733 104.473 22.08C104.339 21.7867 104.246 21.32 104.193 20.68L103.593 21.36C102.793 22.2133 102.046 22.64 101.353 22.64Z" fill="#6B7280"/>
</svg>
