<?xml version="1.0" encoding="UTF-8"?>
<svg version="1.1" preserveAspectRatio="xMidYMid meet" xmlns="http://www.w3.org/2000/svg" xmlns:xlink="http://www.w3.org/1999/xlink" viewBox="38.655 352.469 922.69 295.061" width="1000" height="320">
	<defs>
		<g id="def-1" transform="matrix(9.211, 0, 0, 9.211, 41.548, 355.362)" fill="#fff" stroke="none" stroke-width="1">
			<g transform="translate(1.755, -0.298)">
				<g></g>
				<g transform="matrix(0.94, -0.342, 0.342, 0.94, -4.507, 6.437)">
					<g data-name="Layer 2">
						<path d=" M28.4,4.5 H22.27 a2.6,2.6,0,0,0 -2.6,2.6 v4.4 H12.94 a2.61,2.61,0,0,0 -2.61,2.6 v4.4 H3.6 A2.61,2.61,0,0,0,1,21.1 v3.65 A2.75,2.75,0,0,0,3.75,27.5 h24.5 A2.75,2.75,0,0,0,31,24.75 V22.83 a1,1,0,0,0 -2,0 v1.92 a0.74 0.74,0,0,1 -0.75 0.75 H21.67 V7.1 a0.6 0.6,0,0,1,0.6 -0.6 H28.4 a0.6 0.6,0,0,1,0.6 0.6 V15 a1,1,0,0,0,2,0 V7.1 A2.61,2.61,0,0,0,28.4,4.5 Z m-18.07,21 H3.75 A0.76 0.76,0,0,1,3,24.75 V21.1 a0.6 0.6,0,0,1,0.6 -0.6 h6.73 Z m9.34,0 H12.33 V14.1 a0.6 0.6,0,0,1,0.61 -0.6 h6.73 Z"></path>
					</g>
				</g>
			</g>
		</g>
		<path id="def-2" d="M344.869,493.066 L359.667,493.066 L359.667,465.718 L380.267,465.718 C397.67,465.718,410.693,454.589,410.693,438.725 C410.693,422.861,397.67,411.732,380.267,411.732 L344.869,411.732 Z M359.667,452.103 L359.667,425.347 L378.61,425.347 C388.673,425.347,395.658,430.438,395.658,438.725 C395.658,447.012,388.673,452.103,378.61,452.103 Z M508.956,493.066 L488.593,464.179 C500.314,460.509,508.246,451.037,508.246,438.725 C508.246,422.861,495.223,411.732,477.82,411.732 L442.421,411.732 L442.421,493.066 L457.22,493.066 L457.22,465.718 L472.966,465.718 L492.145,493.066 Z M457.22,425.347 L476.162,425.347 C486.225,425.347,493.21,430.438,493.21,438.725 C493.21,447.012,486.225,452.103,476.162,452.103 L457.22,452.103 Z M581.41,494.486 C604.496,494.486,624.03,475.189,624.03,452.34 C624.03,429.491,604.496,410.312,581.41,410.312 C558.206,410.312,538.672,429.491,538.672,452.34 C538.672,475.189,558.206,494.486,581.41,494.486 Z M581.41,480.99 C566.375,480.99,553.707,467.967,553.707,452.34 C553.707,436.831,566.375,423.808,581.41,423.808 C596.327,423.808,608.876,436.831,608.876,452.34 C608.876,467.967,596.327,480.99,581.41,480.99 Z M718.978,425.229 L718.978,411.732 L657.771,411.732 L657.771,493.066 L672.57,493.066 L672.57,459.325 L714.598,459.325 L714.598,445.828 L672.57,445.828 L672.57,425.229 Z M752.246,493.066 L766.926,493.066 L766.926,411.732 L752.246,411.732 Z M818.07,479.569 L818.07,411.732 L803.39,411.732 L803.39,493.066 L859.861,493.066 L859.861,479.569 Z M953.152,425.229 L953.152,411.732 L891.945,411.732 L891.945,493.066 L953.152,493.066 L953.152,479.569 L906.743,479.569 L906.743,458.378 L948.771,458.378 L948.771,444.881 L906.743,444.881 L906.743,425.229 Z"></path>
		<path id="def-3" d="M442.516,589.497 L436.689,589.497 L419.913,565.99 Q416.196,566.492,413.082,566.492 L413.082,566.492 L392.991,566.492 L392.991,589.497 L387.868,589.497 L387.868,519.178 L413.082,519.178 Q426.342,519.178,433.876,525.457 Q441.411,531.735,441.411,542.885 L441.411,542.885 Q441.411,551.223,437.141,556.899 Q432.872,562.575,424.936,564.885 L424.936,564.885 L442.516,589.497 Z M392.991,561.972 L413.082,561.972 Q424.333,561.972,430.26,556.999 Q436.187,552.027,436.187,542.885 L436.187,542.885 Q436.187,533.744,430.26,528.772 Q424.333,523.799,413.082,523.799 L413.082,523.799 L392.991,523.799 L392.991,561.972 Z M518.761,589.497 L509.72,569.707 L468.935,569.707 L459.995,589.497 L454.47,589.497 L486.816,519.178 L491.939,519.178 L524.286,589.497 L518.761,589.497 Z M470.944,565.387 L507.811,565.387 L489.328,524.804 L470.944,565.387 Z M595.207,519.178 L600.33,519.178 L600.33,589.497 L596.111,589.497 L548.194,528.42 L548.194,589.497 L543.071,589.497 L543.071,519.178 L547.391,519.178 L595.207,580.255 L595.207,519.178 Z M682,589.497 L651.763,554.84 L635.992,571.013 L635.992,589.497 L630.869,589.497 L630.869,519.178 L635.992,519.178 L635.992,564.383 L679.891,519.178 L686.119,519.178 L655.179,551.123 L688.228,589.497 L682,589.497 Z M707.516,589.497 L707.516,519.178 L712.639,519.178 L712.639,589.497 L707.516,589.497 Z M795.313,519.178 L800.437,519.178 L800.437,589.497 L796.217,589.497 L748.3,528.42 L748.3,589.497 L743.177,589.497 L743.177,519.178 L747.497,519.178 L795.313,580.255 L795.313,519.178 Z M881.202,578.848 L881.202,554.639 L886.125,554.639 L886.125,580.958 Q881.504,585.378,874.924,587.688 Q868.344,589.999,861.011,589.999 L861.011,589.999 Q850.564,589.999,842.176,585.378 Q833.788,580.757,829.016,572.62 Q824.244,564.483,824.244,554.337 L824.244,554.337 Q824.244,544.191,829.016,536.055 Q833.788,527.918,842.176,523.297 Q850.564,518.676,861.111,518.676 L861.111,518.676 Q868.846,518.676,875.326,521.137 Q881.805,523.598,886.426,528.32 L886.426,528.32 L883.212,531.735 Q878.792,527.315,873.317,525.356 Q867.842,523.397,861.212,523.397 L861.212,523.397 Q852.171,523.397,844.888,527.415 Q837.605,531.434,833.486,538.516 Q829.368,545.598,829.368,554.337 L829.368,554.337 Q829.368,562.976,833.537,570.059 Q837.705,577.141,844.938,581.209 Q852.171,585.277,861.212,585.277 L861.212,585.277 Q873.266,585.277,881.202,578.848 L881.202,578.848 Z M933.138,589.999 Q925.403,589.999,918.421,587.337 Q911.439,584.675,907.522,580.456 L907.522,580.456 L909.832,576.638 Q913.549,580.556,919.827,583.017 Q926.106,585.478,933.037,585.478 L933.037,585.478 Q943.083,585.478,948.206,581.661 Q953.329,577.844,953.329,571.716 L953.329,571.716 Q953.329,566.995,950.617,564.182 Q947.905,561.369,943.886,559.862 Q939.868,558.356,933.037,556.748 L933.037,556.748 Q925.302,554.84,920.631,553.031 Q915.96,551.223,912.695,547.456 Q909.43,543.689,909.43,537.36 L909.43,537.36 Q909.43,532.237,912.143,527.968 Q914.855,523.699,920.43,521.187 Q926.005,518.676,934.343,518.676 L934.343,518.676 Q940.169,518.676,945.795,520.384 Q951.42,522.091,955.539,525.004 L955.539,525.004 L953.63,529.123 Q949.411,526.21,944.338,524.703 Q939.265,523.196,934.343,523.196 L934.343,523.196 Q924.599,523.196,919.576,527.114 Q914.553,531.032,914.553,537.26 L914.553,537.26 Q914.553,541.981,917.266,544.794 Q919.978,547.607,923.996,549.114 Q928.014,550.621,934.946,552.328 L934.946,552.328 Q942.681,554.237,947.302,556.045 Q951.923,557.853,955.188,561.52 Q958.452,565.186,958.452,571.415 L958.452,571.415 Q958.452,576.538,955.69,580.757 Q952.927,584.976,947.201,587.487 Q941.475,589.999,933.138,589.999 L933.138,589.999 Z"></path>
		<mask id="mask-1" x="27.084" y="340.898" width="356.015" height="318.203" maskUnits="userSpaceOnUse" stroke-width="0">
			<rect x="41.548" y="355.362" width="327.087" height="289.276" fill="#000"></rect>
			<use xlink:href="#def-1" fill="#fff" stroke="#fff"></use>
		</mask>
		<mask id="mask-2" x="331.401" y="396.844" width="793.091" height="111.11" maskUnits="userSpaceOnUse" stroke-width="0">
			<rect x="336.451" y="401.894" width="782.99" height="101.01" fill="#000"></rect>
			<use xlink:href="#def-2" fill="#fff" stroke="#fff"></use>
		</mask>
		<mask id="mask-3" x="376.456" y="507.264" width="708.28" height="94.146" maskUnits="userSpaceOnUse" stroke-width="0">
			<rect x="380.736" y="511.544" width="699.722" height="85.588" fill="#000"></rect>
			<use xlink:href="#def-3" fill="#fff" stroke="#fff"></use>
		</mask>
	</defs>
	<g mask="url(#mask-1)">
		<rect x="41.548" y="355.362" width="327.087" height="289.276" fill="#ff2593"></rect>
	</g>
	<g mask="url(#mask-2)">
		<rect x="336.451" y="401.894" width="782.99" height="101.01" fill="#34424d"></rect>
	</g>
	<g mask="url(#mask-3)">
		<rect x="380.736" y="511.544" width="699.722" height="85.588" fill="#34424d"></rect>
	</g>
</svg>